<svg width="2424" height="1028" viewBox="0 0 2424 1028" fill="none" xmlns="http://www.w3.org/2000/svg">
    <path d="M1947.81 873.578C1961.29 873.578 1972.14 870.438 1980.37 864.151C1988.58 857.859 1994.67 849.656 1998.62 839.526C2002.56 829.391 2004.86 819.089 2005.53 808.604C2005.85 804.073 2006.02 798.307 2006.02 791.318C2006.02 784.339 2005.85 778.745 2005.53 774.552C2004.86 763.729 2002.56 753.328 1998.62 743.38C1994.67 733.422 1988.58 725.224 1980.37 718.755C1972.14 712.292 1961.29 709.063 1947.81 709.063C1934.31 709.063 1923.46 712.292 1915.25 718.755C1907.02 725.224 1901.19 733.688 1897.74 744.161C1894.28 754.641 1892.22 766.172 1891.57 778.745C1890.9 787.13 1890.9 795.693 1891.57 804.417C1892.22 816.646 1894.28 828.083 1897.74 838.734C1901.19 849.396 1907.02 857.859 1915.25 864.151C1923.46 870.438 1934.31 873.578 1947.81 873.578ZM1950.27 1027.79C1926.26 1027.79 1906.53 1024.46 1891.07 1017.83C1875.6 1011.19 1863.44 1003.16 1854.56 993.734C1845.69 984.302 1839.35 974.953 1835.57 965.698C1831.79 956.443 1829.73 949.198 1829.4 943.953C1829.07 940.464 1830.15 937.406 1832.61 934.786C1835.08 932.172 1837.95 930.859 1841.25 930.859H1884.17C1887.45 930.859 1890.08 931.641 1892.06 933.214C1894.03 934.786 1895.67 937.667 1896.99 941.859C1898.96 946.396 1901.59 951.292 1904.88 956.526C1908.17 961.771 1913.19 966.224 1919.93 969.891C1926.67 973.563 1935.96 975.396 1947.81 975.396C1960.3 975.396 1970.82 973.469 1979.38 969.63C1987.93 965.781 1994.42 959.323 1998.87 950.24C2003.3 941.156 2005.53 928.583 2005.53 912.521V895.063C1997.63 905.193 1987.52 913.401 1975.18 919.688C1962.85 925.974 1947.64 929.115 1929.55 929.115C1911.79 929.115 1896.5 926.063 1883.67 919.948C1870.84 913.844 1860.15 905.281 1851.6 894.271C1843.05 883.271 1836.56 870.26 1832.12 855.24C1827.68 840.229 1825.13 823.635 1824.47 805.464C1824.14 796.031 1824.14 786.604 1824.47 777.172C1825.13 759.708 1827.59 743.469 1831.88 728.443C1836.14 713.432 1842.64 700.24 1851.36 688.885C1860.07 677.542 1870.84 668.714 1883.67 662.427C1896.5 656.141 1911.79 652.995 1929.55 652.995C1948.3 652.995 1964.08 656.755 1976.91 664.26C1989.74 671.781 2000.26 681.12 2008.49 692.297V671.333C2008.49 667.495 2009.64 664.354 2011.94 661.906C2014.24 659.464 2017.04 658.24 2020.32 658.24H2060.29C2063.57 658.24 2066.37 659.464 2068.67 661.906C2070.97 664.354 2072.13 667.495 2072.13 671.333L2072.62 905.708C2072.62 930.859 2068.18 952.516 2059.3 970.677C2050.42 988.833 2037.01 1002.9 2019.09 1012.85C2001.16 1022.81 1978.22 1027.79 1950.27 1027.79ZM1299.44 719.87C1289.62 729.427 1274.74 734.182 1254.8 734.182H1185.63V623.74H1254.8C1275.07 623.74 1290.02 628.682 1299.67 638.594C1309.32 648.484 1314.15 662.115 1314.15 679.49C1314.15 696.865 1309.23 710.307 1299.44 719.87ZM1390.18 913.938L1318.55 781.083C1338.5 773.453 1354.44 761.115 1366.4 744.094C1378.33 727.073 1384.29 705.719 1384.29 680.005C1384.29 642.854 1372.85 614.531 1349.96 595.083C1327.05 575.635 1295.83 565.917 1256.26 565.917H1129.21C1125.94 565.917 1123.14 567.115 1120.85 569.563C1118.57 571.99 1117.44 575.12 1117.44 578.932V918.109C1117.44 921.568 1118.57 924.536 1120.85 926.958C1123.14 929.385 1125.94 930.609 1129.21 930.609H1173.85C1177.43 930.609 1180.31 929.385 1182.42 926.958C1184.57 924.536 1185.63 921.568 1185.63 918.109V793.068H1253.81L1317.09 916.531C1318.72 919.661 1321.01 922.792 1323.95 925.922C1326.89 929.031 1331.15 930.609 1336.71 930.609H1381.35C1383.96 930.609 1386.34 929.552 1388.46 927.479C1390.6 925.38 1391.66 922.792 1391.66 919.661C1391.66 917.917 1391.16 916.016 1390.18 913.938ZM1493.82 663.339C1491.67 660.911 1488.82 659.688 1485.22 659.688H1444.52C1441.25 659.688 1438.46 660.911 1436.18 663.339C1433.88 665.766 1432.75 668.729 1432.75 672.193V918.109C1432.75 921.568 1433.88 924.536 1436.18 926.958C1438.46 929.385 1441.25 930.609 1444.52 930.609H1485.22C1488.82 930.609 1491.67 929.385 1493.82 926.958C1495.93 924.536 1497 921.568 1497 918.109V672.193C1497 668.729 1495.93 665.766 1493.82 663.339ZM1496.03 581.651C1493.72 579.224 1490.78 578 1487.2 578H1442.56C1438.96 578 1436.09 579.224 1433.97 581.651C1431.85 584.099 1430.79 587.042 1430.79 590.5V628.031C1430.79 631.844 1431.85 634.88 1433.97 637.141C1436.09 639.401 1438.96 640.531 1442.56 640.531H1487.2C1490.78 640.531 1493.72 639.401 1496.03 637.141C1498.31 634.88 1499.46 631.844 1499.46 628.031V590.5C1499.46 587.042 1498.31 584.099 1496.03 581.651ZM1718.47 813.385C1718.17 824.146 1716.02 834.667 1712.12 844.911C1708.18 855.151 1702.13 863.578 1693.96 870.172C1685.77 876.766 1674.82 880.063 1661.09 880.063C1647.34 880.063 1636.47 876.859 1628.46 870.432C1620.46 864.005 1614.64 855.573 1611.04 845.167C1607.44 834.74 1605.32 823.276 1604.68 810.771C1604.35 800.365 1604.35 789.932 1604.68 779.505C1605.32 767.005 1607.44 755.536 1611.04 745.13C1614.64 734.698 1620.46 726.297 1628.46 719.87C1636.47 713.443 1647.34 710.214 1661.09 710.214C1674.16 710.214 1684.8 713.344 1692.97 719.609C1701.15 725.849 1707.36 733.76 1711.62 743.292C1715.86 752.854 1718.17 762.833 1718.47 773.266C1718.8 779.505 1718.97 786.214 1718.97 793.323C1718.97 800.432 1718.8 807.12 1718.47 813.385ZM1780.3 470.161C1777.99 467.734 1775.21 466.51 1771.94 466.51H1730.27C1726.64 466.51 1723.79 467.734 1721.68 470.161C1719.53 472.609 1718.47 475.552 1718.47 479.036V688.859C1710.3 678.786 1700.08 670.542 1687.82 664.115C1675.55 657.688 1660.6 654.464 1642.94 654.464C1634.63 654.464 1626.82 655.214 1619.47 656.724C1611.8 658.276 1604.66 660.656 1598.05 663.854C1585.12 670.094 1574.34 678.875 1565.67 690.156C1557.01 701.458 1550.46 714.573 1546.06 729.5C1541.64 744.448 1539.09 760.573 1538.45 777.953C1538.13 784.214 1537.96 789.865 1537.96 794.88C1537.96 799.917 1538.13 805.568 1538.45 811.807C1539.09 829.891 1541.7 846.464 1546.3 861.578C1550.89 876.672 1557.41 889.786 1565.93 900.896C1574.43 912.031 1585.12 920.625 1598.05 926.703C1610.97 932.776 1625.92 935.813 1642.94 935.813C1661.9 935.813 1677.69 932.328 1690.27 925.38C1702.87 918.438 1713.25 909.583 1721.42 898.823V918.109C1721.42 921.568 1722.47 924.536 1724.62 926.958C1726.74 929.385 1729.61 930.609 1733.21 930.609H1771.94C1775.21 930.609 1777.99 929.385 1780.3 926.958C1782.58 924.536 1783.74 921.568 1783.74 918.109V479.036C1783.74 475.552 1782.58 472.609 1780.3 470.161ZM2287.51 771.688H2179.11V770.135C2179.11 756.594 2181.14 744.776 2185.23 734.698C2189.3 724.646 2195.45 716.641 2203.62 710.734C2211.79 704.849 2221.6 701.88 2233.05 701.88C2244.52 701.88 2254.31 704.849 2262.5 710.734C2270.67 716.641 2276.89 724.646 2281.13 734.698C2285.39 744.776 2287.51 756.594 2287.51 770.135V771.688ZM2340.51 720.385C2331.32 699.714 2317.76 683.563 2299.77 671.932C2281.79 660.302 2259.56 654.464 2233.05 654.464C2209.18 654.464 2188.41 659.594 2170.75 669.839C2153.09 680.104 2139.27 694.771 2129.31 713.865C2121.52 728.792 2116.37 745.792 2113.89 764.932C2113.16 770.297 2112.67 775.88 2112.39 781.599C2112.06 784.734 2111.89 788.969 2111.89 794.359C2111.89 799.75 2112.06 804.177 2112.39 807.641C2112.79 818.161 2113.87 828.078 2115.59 837.354C2120.53 864.24 2130.92 885.948 2146.71 902.474C2167.97 924.698 2196.77 935.813 2233.05 935.813C2239.38 935.813 2245.48 935.505 2251.32 934.917H2251.34C2262.41 933.766 2272.56 931.552 2281.88 928.255C2287.22 926.349 2292.24 924.276 2296.92 922.016C2304.67 918.271 2311.52 914.01 2317.43 909.255C2326.92 901.604 2334.19 893.786 2339.28 885.807C2344.34 877.802 2347.03 871.042 2347.35 865.484C2347.68 862.354 2346.79 859.745 2344.67 857.672C2342.53 855.573 2339.84 854.536 2336.57 854.536H2294.38C2290.78 854.536 2288.07 854.984 2286.28 855.833C2284.5 856.703 2282.12 859.224 2279.17 863.391C2277.52 865.818 2274.77 868.948 2270.84 872.76C2269.87 873.703 2268.83 874.625 2267.75 875.495C2264.36 878.224 2260.31 880.719 2255.63 882.932C2249.41 885.875 2241.71 887.359 2232.58 887.359C2221.44 887.359 2211.89 884.229 2203.88 877.99C2195.85 871.729 2189.8 863.484 2185.72 853.245C2181.63 843.005 2179.42 831.797 2179.11 819.625V815.458H2341.96C2345.57 815.458 2348.51 814.255 2350.79 811.807C2353.07 809.38 2354.23 806.438 2354.23 802.953V792.031C2354.23 764.932 2349.64 741.057 2340.51 720.385ZM816.86 380.151V380.104H748.699C741.188 380.104 735.115 386.203 735.115 393.714V430.089C735.115 434.208 736.949 437.906 739.844 440.375C742.199 442.427 745.329 443.672 748.699 443.672H755.949V493.635H776.386C794.516 493.635 809.183 491.115 819.99 486.172C821.329 485.583 822.553 484.948 823.896 484.193C825.12 483.484 826.298 482.734 827.407 481.932V436.609H848.829C848.876 436.208 848.923 435.786 848.969 435.365C849.49 430.464 849.792 425.073 849.912 419.328C850.266 408.547 850.527 399.271 850.714 391.286C850.808 387.594 850.829 383.87 850.829 380.151H816.86ZM993.506 841.188C980.652 859.083 961.745 868.146 937.282 868.146H827.407V688.813H937.282C961.298 688.813 980.089 697.688 993.131 715.229C1005.7 732.156 1012.08 753.583 1012.08 778.87C1012.08 803.073 1005.82 824.047 993.506 841.188ZM1068.99 700.844C1062.49 688.839 1037.54 648.177 988.777 628.917L978.719 624.938L986.396 617.333C998.949 604.88 1006.34 592.755 1009.64 586.609C1018.32 570.552 1023.93 542.792 1023.93 515.906C1023.93 488.688 1019.05 461.24 1010.93 442.474C1008.58 437.083 1005.92 431.995 1002.9 427.24C995.11 414.786 985.173 404.542 973.214 396.656C968.412 393.479 963.256 390.745 957.719 388.51C954.943 387.354 952.094 386.344 949.152 385.448C949.126 388.464 949.079 391.573 949.011 394.776C948.844 403.109 948.537 412.078 948.115 421.568C947.928 429.474 947.454 437.292 946.657 444.755C946.303 448.099 945.975 450.594 945.62 452.953C945.594 453.188 945.548 453.396 945.527 453.635C947.152 455.354 948.657 457.208 950.068 459.188C950.985 460.484 951.881 461.849 952.756 463.307C960.688 476.682 965.49 496.297 965.49 515.906C965.49 533.943 961.37 560.568 949.74 576.203C938.839 590.896 923.11 598.333 903.027 598.333H827.407V574.766C816.787 576.604 805.204 577.755 792.818 578.229C788.344 578.417 783.73 578.51 779.048 578.51H755.949V872.359H733.886C726.402 872.359 720.303 878.411 720.303 885.948V926.677C720.303 934.214 726.402 940.26 733.886 940.26H763.532C763.579 940.286 763.626 940.286 763.673 940.286H947.126C977.594 940.286 1003.42 933.411 1023.9 919.875C1044.39 906.359 1060.09 887.266 1070.59 863.135C1081.23 838.625 1086.63 810.276 1086.63 778.87C1086.63 748.755 1080.69 722.505 1068.99 700.844Z"
          fill="#2E69C6"/>
    <path d="M852.36 469.432C848.574 477.599 843.391 484.333 836.824 489.583C834.636 491.349 832.277 492.953 829.761 494.385C828.204 495.281 826.584 496.13 824.886 496.885C817.001 500.51 807.584 502.958 796.657 504.276C790.391 505.031 783.636 505.406 776.386 505.406H700.761V254.802H773.704C803.907 254.802 825.969 261.75 839.834 275.62C843.912 279.688 847.391 284.401 850.313 289.792C857.402 302.766 861.193 319.552 861.683 340.125C861.824 344.458 861.969 348.604 862.084 352.536C862.251 357.948 862.37 362.964 862.485 367.578C862.532 369.417 862.558 371.25 862.579 373.089C862.605 375.443 862.605 377.797 862.605 380.151C862.605 383.964 862.579 387.781 862.485 391.573C862.298 399.578 862.037 408.901 861.683 419.562C861.568 425.594 861.24 431.266 860.673 436.609C860.412 439.036 860.105 441.391 859.73 443.672C858.693 450.453 857.214 456.599 855.282 462.13C854.412 464.698 853.423 467.125 852.36 469.432ZM937.381 374.901C937.287 364.094 936.954 351.969 936.344 338.526C936.178 325.391 935.027 313.125 932.834 301.703C929.824 285.885 924.855 271.661 917.933 259.068C915.579 254.755 912.985 250.682 910.162 246.797C898.813 231.12 883.818 218.854 865.146 210.021C841.86 199.005 812.266 193.495 776.386 193.495H606.396C598.886 193.495 592.813 199.568 592.813 207.078V241.219C592.813 248.729 598.886 254.802 606.396 254.802H626.646V505.406H606.396C598.886 505.406 592.813 511.505 592.813 518.99V553.13C592.813 560.641 598.886 566.714 606.396 566.714H639.36C639.381 566.714 639.433 566.74 639.454 566.74H779.048C790.35 566.74 801.011 566.219 811.042 565.135C817.542 564.453 823.777 563.536 829.761 562.385C832.162 561.958 834.516 561.464 836.824 560.922C847.771 558.427 857.756 555.109 866.745 550.99C889.678 540.51 906.818 524.521 918.214 503.005C921.678 496.458 924.667 489.349 927.115 481.719C930.152 472.349 932.433 462.177 933.99 451.208C934.365 448.688 934.673 446.12 934.954 443.531C935.709 436.401 936.178 428.938 936.344 421.167C936.626 414.974 936.86 409.062 937.027 403.391C937.24 395.833 937.381 388.745 937.402 382.104V380.104C937.402 378.411 937.402 376.667 937.381 374.901ZM942.652 469.339C942.818 469.62 942.98 469.927 943.146 470.208L942.324 470.797C942.443 470.328 942.537 469.833 942.652 469.339ZM1876.63 1027.79H13.709C6.43815 1027.79 0.568359 1021.92 0.568359 1014.68V988.792C0.568359 981.557 6.43815 975.651 13.709 975.651H1823.42C1827.97 985.161 1834.72 994.729 1843.53 1004.11C1852.07 1013.17 1863.15 1021.13 1876.63 1027.79ZM2423.43 988.792V1014.68C2423.43 1021.92 2417.56 1027.79 2410.29 1027.79H2023.25C2024.33 1027.25 2025.4 1026.67 2026.45 1026.1C2047.05 1014.65 2062.67 998.24 2072.91 977.318C2073.18 976.771 2073.45 976.224 2073.69 975.651H2410.29C2417.56 975.651 2423.43 981.526 2423.43 988.792ZM1179.58 0.208313H1123.49C1120.15 0.208313 1117.44 2.91144 1117.44 6.24998V646.536H1185.63V6.24998C1185.63 2.91144 1182.92 0.208313 1179.58 0.208313Z"
          fill="#2E69C6"/>
    <path d="M1703.33 652.375V655.583C1700.61 653.859 1697.76 652.224 1694.86 650.708C1680.44 643.141 1662.97 639.323 1642.95 639.323C1633.66 639.323 1624.76 640.172 1616.46 641.87C1616.21 641.927 1615.97 641.958 1615.73 642.021L1136.57 259.849L1165.58 223.484L1703.33 652.375ZM1165.57 95.0208L1703.32 523.911V583.417L1136.56 131.385L1165.57 95.0208ZM1868.19 655.391C1857.36 661.995 1847.88 670.594 1839.89 680.948C1838.07 683.307 1836.34 685.734 1834.77 688.245L1798.89 659.63V600.13L1868.19 655.391ZM740.819 581.87V602.854L228.053 1011.79L199.043 975.427L692.496 581.87H740.819Z"
          fill="#2E69C6"/>
    <path d="M1170.86 259.865L998.328 397.49C993.177 392.495 987.609 387.984 981.578 384.016C975.859 380.26 969.74 377.052 963.536 374.542C961.109 373.51 958.599 372.599 955.995 371.755L1141.85 223.5L1170.86 259.865ZM606.406 581.87H611.464L70.651 1013.19L41.6406 976.786L577.672 549.286V553.135C577.672 568.969 590.568 581.87 606.406 581.87ZM1176.29 131.385L949.755 312.042C949.214 307.531 948.516 303.109 947.698 298.87C945.245 286.031 941.583 273.979 936.703 262.958L1147.28 95.0208L1176.29 131.385Z"
          fill="#2E69C6"/>
</svg>
